<?xml version="1.0" encoding="UTF-8" standalone="no"?>
<!DOCTYPE svg PUBLIC "-//W3C//DTD SVG 1.1//EN"
 "http://www.w3.org/Graphics/SVG/1.1/DTD/svg11.dtd">
<!-- Generated by graphviz version 2.40.1 (20161225.0304)
 -->
<!-- Title: dag Pages: 1 -->
<svg width="680pt" height="731pt"
 viewBox="0.00 0.00 680.00 731.48" xmlns="http://www.w3.org/2000/svg" xmlns:xlink="http://www.w3.org/1999/xlink">
<g id="graph0" class="graph" transform="scale(1 1) rotate(0) translate(4 727.4802)">
<title>dag</title>
<polygon fill="#ffffff" stroke="transparent" points="-4,4 -4,-727.4802 675.9971,-727.4802 675.9971,4 -4,4"/>
<!-- depo -->
<g id="node1" class="node">
<title>depo</title>
<polygon fill="none" stroke="#000000" points="385.4971,-723.4802 303.4971,-723.4802 303.4971,-687.4802 385.4971,-687.4802 385.4971,-723.4802"/>
<text text-anchor="middle" x="344.4971" y="-701.7802" font-family="Times,serif" font-size="14.00" fill="#000000">depo source</text>
</g>
<!-- x -->
<g id="node19" class="node">
<title>x</title>
<ellipse fill="none" stroke="#000000" cx="200.4971" cy="-633.4802" rx="27" ry="18"/>
<text text-anchor="middle" x="200.4971" y="-629.7802" font-family="Times,serif" font-size="14.00" fill="#000000">x</text>
</g>
<!-- depo&#45;&gt;x -->
<g id="edge1" class="edge">
<title>depo&#45;&gt;x</title>
<path fill="none" stroke="#000000" d="M308.1598,-687.3116C284.5392,-675.5013 254.0676,-660.2655 231.574,-649.0187"/>
<polygon fill="#000000" stroke="#000000" points="232.9751,-645.8061 222.4655,-644.4644 229.8446,-652.0671 232.9751,-645.8061"/>
</g>
<!-- y -->
<g id="node20" class="node">
<title>y</title>
<ellipse fill="none" stroke="#000000" cx="488.4971" cy="-633.4802" rx="27" ry="18"/>
<text text-anchor="middle" x="488.4971" y="-629.7802" font-family="Times,serif" font-size="14.00" fill="#000000">y</text>
</g>
<!-- depo&#45;&gt;y -->
<g id="edge2" class="edge">
<title>depo&#45;&gt;y</title>
<path fill="none" stroke="#000000" d="M380.8344,-687.3116C404.455,-675.5013 434.9266,-660.2655 457.4202,-649.0187"/>
<polygon fill="#000000" stroke="#000000" points="459.1497,-652.0671 466.5287,-644.4644 456.0191,-645.8061 459.1497,-652.0671"/>
</g>
<!-- z -->
<g id="node21" class="node">
<title>z</title>
<ellipse fill="none" stroke="#000000" cx="416.4971" cy="-633.4802" rx="27" ry="18"/>
<text text-anchor="middle" x="416.4971" y="-629.7802" font-family="Times,serif" font-size="14.00" fill="#000000">z</text>
</g>
<!-- depo&#45;&gt;z -->
<g id="edge3" class="edge">
<title>depo&#45;&gt;z</title>
<path fill="none" stroke="#000000" d="M362.6658,-687.3116C372.2265,-677.7509 384.032,-665.9453 394.149,-655.8284"/>
<polygon fill="#000000" stroke="#000000" points="396.895,-658.0321 401.4912,-648.4861 391.9452,-653.0824 396.895,-658.0321"/>
</g>
<!-- t -->
<g id="node22" class="node">
<title>t</title>
<ellipse fill="none" stroke="#000000" cx="272.4971" cy="-633.4802" rx="27" ry="18"/>
<text text-anchor="middle" x="272.4971" y="-629.7802" font-family="Times,serif" font-size="14.00" fill="#000000">t</text>
</g>
<!-- depo&#45;&gt;t -->
<g id="edge4" class="edge">
<title>depo&#45;&gt;t</title>
<path fill="none" stroke="#000000" d="M326.3285,-687.3116C316.7677,-677.7509 304.9622,-665.9453 294.8452,-655.8284"/>
<polygon fill="#000000" stroke="#000000" points="297.049,-653.0824 287.503,-648.4861 292.0992,-658.0321 297.049,-653.0824"/>
</g>
<!-- q -->
<g id="node23" class="node">
<title>q</title>
<ellipse fill="none" stroke="#000000" cx="344.4971" cy="-633.4802" rx="27" ry="18"/>
<text text-anchor="middle" x="344.4971" y="-629.7802" font-family="Times,serif" font-size="14.00" fill="#000000">q</text>
</g>
<!-- depo&#45;&gt;q -->
<g id="edge5" class="edge">
<title>depo&#45;&gt;q</title>
<path fill="none" stroke="#000000" d="M344.4971,-687.3116C344.4971,-679.6112 344.4971,-670.4546 344.4971,-661.8969"/>
<polygon fill="#000000" stroke="#000000" points="347.9972,-661.8935 344.4971,-651.8935 340.9972,-661.8935 347.9972,-661.8935"/>
</g>
<!-- drift -->
<g id="node2" class="node">
<title>drift</title>
<polygon fill="none" stroke="#000000" points="251.9971,-579.4802 166.9971,-579.4802 166.9971,-543.4802 251.9971,-543.4802 251.9971,-579.4802"/>
<text text-anchor="middle" x="209.4971" y="-557.7802" font-family="Times,serif" font-size="14.00" fill="#000000">drift(x_resp)</text>
</g>
<!-- Tdrift -->
<g id="node24" class="node">
<title>Tdrift</title>
<ellipse fill="none" stroke="#000000" cx="209.4971" cy="-480.6102" rx="31.3957" ry="18"/>
<text text-anchor="middle" x="209.4971" y="-476.9102" font-family="Times,serif" font-size="14.00" fill="#000000">Tdrift</text>
</g>
<!-- drift&#45;&gt;Tdrift -->
<g id="edge9" class="edge">
<title>drift&#45;&gt;Tdrift</title>
<path fill="none" stroke="#000000" d="M209.4971,-543.1296C209.4971,-533.1 209.4971,-520.4555 209.4971,-509.1666"/>
<polygon fill="#000000" stroke="#000000" points="212.9972,-508.8882 209.4971,-498.8882 205.9972,-508.8883 212.9972,-508.8882"/>
</g>
<!-- Qdrift -->
<g id="node25" class="node">
<title>Qdrift</title>
<ellipse fill="none" stroke="#000000" cx="32.4971" cy="-399.7401" rx="32.4942" ry="18"/>
<text text-anchor="middle" x="32.4971" y="-396.0401" font-family="Times,serif" font-size="14.00" fill="#000000">Qdrift</text>
</g>
<!-- drift&#45;&gt;Qdrift -->
<g id="edge10" class="edge">
<title>drift&#45;&gt;Qdrift</title>
<path fill="none" stroke="#000000" d="M166.9308,-547.6958C144.4019,-538.8407 117.3689,-525.5742 97.4971,-507.4802 72.653,-484.8588 54.1987,-450.5281 43.4243,-426.7242"/>
<polygon fill="#000000" stroke="#000000" points="46.6234,-425.3042 39.4115,-417.5429 40.2093,-428.1076 46.6234,-425.3042"/>
</g>
<!-- dP -->
<g id="node26" class="node">
<title>dP</title>
<ellipse fill="none" stroke="#000000" cx="285.4971" cy="-480.6102" rx="27" ry="18"/>
<text text-anchor="middle" x="285.4971" y="-476.9102" font-family="Times,serif" font-size="14.00" fill="#000000">dP</text>
</g>
<!-- drift&#45;&gt;dP -->
<g id="edge11" class="edge">
<title>drift&#45;&gt;dP</title>
<path fill="none" stroke="#000000" d="M226.7427,-543.1296C237.8407,-531.3204 252.3456,-515.886 264.1665,-503.3077"/>
<polygon fill="#000000" stroke="#000000" points="266.8275,-505.5869 271.1253,-495.9029 261.7266,-500.7931 266.8275,-505.5869"/>
</g>
<!-- dT -->
<g id="node27" class="node">
<title>dT</title>
<ellipse fill="none" stroke="#000000" cx="133.4971" cy="-480.6102" rx="27" ry="18"/>
<text text-anchor="middle" x="133.4971" y="-476.9102" font-family="Times,serif" font-size="14.00" fill="#000000">dT</text>
</g>
<!-- drift&#45;&gt;dT -->
<g id="edge12" class="edge">
<title>drift&#45;&gt;dT</title>
<path fill="none" stroke="#000000" d="M192.2515,-543.1296C181.1535,-531.3204 166.6486,-515.886 154.8278,-503.3077"/>
<polygon fill="#000000" stroke="#000000" points="157.2677,-500.7931 147.8689,-495.9029 152.1667,-505.5869 157.2677,-500.7931"/>
</g>
<!-- duct0 -->
<g id="node3" class="node">
<title>duct0</title>
<polygon fill="none" stroke="#000000" points="319.9971,-273.7401 182.9971,-273.7401 182.9971,-235.7401 319.9971,-235.7401 319.9971,-273.7401"/>
<text text-anchor="middle" x="251.4971" y="-258.5401" font-family="Times,serif" font-size="14.00" fill="#000000">duct(plane=0)</text>
<text text-anchor="middle" x="251.4971" y="-243.5401" font-family="Times,serif" font-size="14.00" fill="#000000">(for imp in range(10))</text>
</g>
<!-- volts0 -->
<g id="node15" class="node">
<title>volts0</title>
<ellipse fill="none" stroke="#000000" cx="251.4971" cy="-172.8701" rx="65.1077" ry="26.7407"/>
<text text-anchor="middle" x="251.4971" y="-176.6701" font-family="Times,serif" font-size="14.00" fill="#000000">V&#45;waveforms</text>
<text text-anchor="middle" x="251.4971" y="-161.6701" font-family="Times,serif" font-size="14.00" fill="#000000">(plane0)</text>
</g>
<!-- duct0&#45;&gt;volts0 -->
<g id="edge39" class="edge">
<title>duct0&#45;&gt;volts0</title>
<path fill="none" stroke="#000000" d="M251.4971,-235.3381C251.4971,-227.7251 251.4971,-218.7231 251.4971,-209.9584"/>
<polygon fill="#000000" stroke="#000000" points="254.9972,-209.8759 251.4971,-199.8759 247.9972,-209.8759 254.9972,-209.8759"/>
</g>
<!-- trans0 -->
<g id="node4" class="node">
<title>trans0</title>
<polygon fill="none" stroke="#000000" points="422.4971,-579.4802 326.4971,-579.4802 326.4971,-543.4802 422.4971,-543.4802 422.4971,-579.4802"/>
<text text-anchor="middle" x="374.4971" y="-557.7802" font-family="Times,serif" font-size="14.00" fill="#000000">trans(plane=0)</text>
</g>
<!-- pitch0 -->
<g id="node12" class="node">
<title>pitch0</title>
<ellipse fill="none" stroke="#000000" cx="376.4971" cy="-480.6102" rx="45.9239" ry="26.7407"/>
<text text-anchor="middle" x="376.4971" y="-484.4102" font-family="Times,serif" font-size="14.00" fill="#000000">Pdrift</text>
<text text-anchor="middle" x="376.4971" y="-469.4102" font-family="Times,serif" font-size="14.00" fill="#000000">(plane 0)</text>
</g>
<!-- trans0&#45;&gt;pitch0 -->
<g id="edge15" class="edge">
<title>trans0&#45;&gt;pitch0</title>
<path fill="none" stroke="#000000" d="M374.9509,-543.1296C375.1382,-535.5597 375.3622,-526.5002 375.5809,-517.6583"/>
<polygon fill="#000000" stroke="#000000" points="379.0842,-517.5643 375.8326,-507.4808 372.0863,-517.3912 379.0842,-517.5643"/>
</g>
<!-- trans1 -->
<g id="node5" class="node">
<title>trans1</title>
<polygon fill="none" stroke="#000000" points="536.4971,-579.4802 440.4971,-579.4802 440.4971,-543.4802 536.4971,-543.4802 536.4971,-579.4802"/>
<text text-anchor="middle" x="488.4971" y="-557.7802" font-family="Times,serif" font-size="14.00" fill="#000000">trans(plane=1)</text>
</g>
<!-- pitch1 -->
<g id="node13" class="node">
<title>pitch1</title>
<ellipse fill="none" stroke="#000000" cx="488.4971" cy="-480.6102" rx="45.9239" ry="26.7407"/>
<text text-anchor="middle" x="488.4971" y="-484.4102" font-family="Times,serif" font-size="14.00" fill="#000000">Pdrift</text>
<text text-anchor="middle" x="488.4971" y="-469.4102" font-family="Times,serif" font-size="14.00" fill="#000000">(plane 1)</text>
</g>
<!-- trans1&#45;&gt;pitch1 -->
<g id="edge18" class="edge">
<title>trans1&#45;&gt;pitch1</title>
<path fill="none" stroke="#000000" d="M488.4971,-543.1296C488.4971,-535.5597 488.4971,-526.5002 488.4971,-517.6583"/>
<polygon fill="#000000" stroke="#000000" points="491.9972,-517.4808 488.4971,-507.4808 484.9972,-517.4808 491.9972,-517.4808"/>
</g>
<!-- trans2 -->
<g id="node6" class="node">
<title>trans2</title>
<polygon fill="none" stroke="#000000" points="650.4971,-579.4802 554.4971,-579.4802 554.4971,-543.4802 650.4971,-543.4802 650.4971,-579.4802"/>
<text text-anchor="middle" x="602.4971" y="-557.7802" font-family="Times,serif" font-size="14.00" fill="#000000">trans(plane=2)</text>
</g>
<!-- pitch2 -->
<g id="node14" class="node">
<title>pitch2</title>
<ellipse fill="none" stroke="#000000" cx="602.4971" cy="-480.6102" rx="45.9239" ry="26.7407"/>
<text text-anchor="middle" x="602.4971" y="-484.4102" font-family="Times,serif" font-size="14.00" fill="#000000">Pdrift</text>
<text text-anchor="middle" x="602.4971" y="-469.4102" font-family="Times,serif" font-size="14.00" fill="#000000">(plane 2)</text>
</g>
<!-- trans2&#45;&gt;pitch2 -->
<g id="edge21" class="edge">
<title>trans2&#45;&gt;pitch2</title>
<path fill="none" stroke="#000000" d="M602.4971,-543.1296C602.4971,-535.5597 602.4971,-526.5002 602.4971,-517.6583"/>
<polygon fill="#000000" stroke="#000000" points="605.9972,-517.4808 602.4971,-507.4808 598.9972,-517.4808 605.9972,-517.4808"/>
</g>
<!-- tbinning -->
<g id="node7" class="node">
<title>tbinning</title>
<polygon fill="none" stroke="#000000" points="209.9971,-417.7401 132.9971,-417.7401 132.9971,-381.7401 209.9971,-381.7401 209.9971,-417.7401"/>
<text text-anchor="middle" x="171.4971" y="-396.0401" font-family="Times,serif" font-size="14.00" fill="#000000">t_binning()</text>
</g>
<!-- nTbins -->
<g id="node28" class="node">
<title>nTbins</title>
<ellipse fill="none" stroke="#000000" cx="87.4971" cy="-327.7401" rx="35.194" ry="18"/>
<text text-anchor="middle" x="87.4971" y="-324.0401" font-family="Times,serif" font-size="14.00" fill="#000000">nTbins</text>
</g>
<!-- tbinning&#45;&gt;nTbins -->
<g id="edge24" class="edge">
<title>tbinning&#45;&gt;nTbins</title>
<path fill="none" stroke="#000000" d="M150.3004,-381.5715C139.0854,-371.9587 125.2229,-360.0765 113.3772,-349.9231"/>
<polygon fill="#000000" stroke="#000000" points="115.4263,-347.0696 105.5559,-343.2191 110.8707,-352.3844 115.4263,-347.0696"/>
</g>
<!-- Tmin -->
<g id="node29" class="node">
<title>Tmin</title>
<ellipse fill="none" stroke="#000000" cx="171.4971" cy="-327.7401" rx="30.5947" ry="18"/>
<text text-anchor="middle" x="171.4971" y="-324.0401" font-family="Times,serif" font-size="14.00" fill="#000000">Tmin</text>
</g>
<!-- tbinning&#45;&gt;Tmin -->
<g id="edge25" class="edge">
<title>tbinning&#45;&gt;Tmin</title>
<path fill="none" stroke="#000000" d="M171.4971,-381.5715C171.4971,-373.8711 171.4971,-364.7145 171.4971,-356.1567"/>
<polygon fill="#000000" stroke="#000000" points="174.9972,-356.1533 171.4971,-346.1534 167.9972,-356.1534 174.9972,-356.1533"/>
</g>
<!-- Tmax -->
<g id="node30" class="node">
<title>Tmax</title>
<ellipse fill="none" stroke="#000000" cx="251.4971" cy="-327.7401" rx="31.6951" ry="18"/>
<text text-anchor="middle" x="251.4971" y="-324.0401" font-family="Times,serif" font-size="14.00" fill="#000000">Tmax</text>
</g>
<!-- tbinning&#45;&gt;Tmax -->
<g id="edge26" class="edge">
<title>tbinning&#45;&gt;Tmax</title>
<path fill="none" stroke="#000000" d="M191.6845,-381.5715C202.3654,-371.9587 215.5678,-360.0765 226.8494,-349.9231"/>
<polygon fill="#000000" stroke="#000000" points="229.2067,-352.5103 234.2983,-343.2191 224.5239,-347.3072 229.2067,-352.5103"/>
</g>
<!-- pbinning0 -->
<g id="node8" class="node">
<title>pbinning0</title>
<polygon fill="none" stroke="#000000" points="438.9971,-417.7401 313.9971,-417.7401 313.9971,-381.7401 438.9971,-381.7401 438.9971,-417.7401"/>
<text text-anchor="middle" x="376.4971" y="-396.0401" font-family="Times,serif" font-size="14.00" fill="#000000">p_binning(plane=0)</text>
</g>
<!-- nPbins -->
<g id="node31" class="node">
<title>nPbins</title>
<ellipse fill="none" stroke="#000000" cx="335.4971" cy="-327.7401" rx="34.394" ry="18"/>
<text text-anchor="middle" x="335.4971" y="-324.0401" font-family="Times,serif" font-size="14.00" fill="#000000">nPbins</text>
</g>
<!-- pbinning0&#45;&gt;nPbins -->
<g id="edge29" class="edge">
<title>pbinning0&#45;&gt;nPbins</title>
<path fill="none" stroke="#000000" d="M366.1511,-381.5715C361.3829,-373.198 355.6341,-363.1027 350.4096,-353.9279"/>
<polygon fill="#000000" stroke="#000000" points="353.4054,-352.1157 345.4155,-345.1578 347.3225,-355.5796 353.4054,-352.1157"/>
</g>
<!-- Pmin -->
<g id="node32" class="node">
<title>Pmin</title>
<ellipse fill="none" stroke="#000000" cx="417.4971" cy="-327.7401" rx="29.795" ry="18"/>
<text text-anchor="middle" x="417.4971" y="-324.0401" font-family="Times,serif" font-size="14.00" fill="#000000">Pmin</text>
</g>
<!-- pbinning0&#45;&gt;Pmin -->
<g id="edge30" class="edge">
<title>pbinning0&#45;&gt;Pmin</title>
<path fill="none" stroke="#000000" d="M386.8431,-381.5715C391.6114,-373.198 397.3601,-363.1027 402.5846,-353.9279"/>
<polygon fill="#000000" stroke="#000000" points="405.6717,-355.5796 407.5787,-345.1578 399.5888,-352.1157 405.6717,-355.5796"/>
</g>
<!-- Pmax -->
<g id="node33" class="node">
<title>Pmax</title>
<ellipse fill="none" stroke="#000000" cx="496.4971" cy="-327.7401" rx="31.3957" ry="18"/>
<text text-anchor="middle" x="496.4971" y="-324.0401" font-family="Times,serif" font-size="14.00" fill="#000000">Pmax</text>
</g>
<!-- pbinning0&#45;&gt;Pmax -->
<g id="edge31" class="edge">
<title>pbinning0&#45;&gt;Pmax</title>
<path fill="none" stroke="#000000" d="M406.7782,-381.5715C424.7523,-370.787 447.4868,-357.1463 465.5728,-346.2947"/>
<polygon fill="#000000" stroke="#000000" points="467.7829,-349.0504 474.5571,-340.9041 464.1814,-343.0479 467.7829,-349.0504"/>
</g>
<!-- pbinning1 -->
<g id="node9" class="node">
<title>pbinning1</title>
<polygon fill="none" stroke="#000000" points="528.9971,-723.4802 403.9971,-723.4802 403.9971,-687.4802 528.9971,-687.4802 528.9971,-723.4802"/>
<text text-anchor="middle" x="466.4971" y="-701.7802" font-family="Times,serif" font-size="14.00" fill="#000000">p_binning(plane=1)</text>
</g>
<!-- pbinning2 -->
<g id="node10" class="node">
<title>pbinning2</title>
<polygon fill="none" stroke="#000000" points="671.9971,-723.4802 546.9971,-723.4802 546.9971,-687.4802 671.9971,-687.4802 671.9971,-723.4802"/>
<text text-anchor="middle" x="609.4971" y="-701.7802" font-family="Times,serif" font-size="14.00" fill="#000000">p_binning(plane=2)</text>
</g>
<!-- wirechan -->
<g id="node11" class="node">
<title>wirechan</title>
<polygon fill="none" stroke="#000000" points="456.9971,-110 341.9971,-110 341.9971,-72 456.9971,-72 456.9971,-110"/>
<text text-anchor="middle" x="399.4971" y="-94.8" font-family="Times,serif" font-size="14.00" fill="#000000">wire&#45;channel map</text>
<text text-anchor="middle" x="399.4971" y="-79.8" font-family="Times,serif" font-size="14.00" fill="#000000">ADC model</text>
</g>
<!-- adc -->
<g id="node18" class="node">
<title>adc</title>
<ellipse fill="none" stroke="#000000" cx="399.4971" cy="-18" rx="71.4873" ry="18"/>
<text text-anchor="middle" x="399.4971" y="-14.3" font-family="Times,serif" font-size="14.00" fill="#000000">ADC&#45;waveforms</text>
</g>
<!-- wirechan&#45;&gt;adc -->
<g id="edge43" class="edge">
<title>wirechan&#45;&gt;adc</title>
<path fill="none" stroke="#000000" d="M399.4971,-71.8201C399.4971,-64.0975 399.4971,-55.0282 399.4971,-46.5585"/>
<polygon fill="#000000" stroke="#000000" points="402.9972,-46.2973 399.4971,-36.2973 395.9972,-46.2974 402.9972,-46.2973"/>
</g>
<!-- pitch0&#45;&gt;pbinning0 -->
<g id="edge27" class="edge">
<title>pitch0&#45;&gt;pbinning0</title>
<path fill="none" stroke="#000000" d="M376.4971,-453.6816C376.4971,-445.4111 376.4971,-436.2888 376.4971,-427.9358"/>
<polygon fill="#000000" stroke="#000000" points="379.9972,-427.8889 376.4971,-417.8889 372.9972,-427.889 379.9972,-427.8889"/>
</g>
<!-- volts0&#45;&gt;wirechan -->
<g id="edge40" class="edge">
<title>volts0&#45;&gt;wirechan</title>
<path fill="none" stroke="#000000" d="M290.7698,-151.1453C310.9111,-140.0037 335.4912,-126.4065 356.182,-114.9609"/>
<polygon fill="#000000" stroke="#000000" points="358.0288,-117.9391 365.085,-110.0359 354.6404,-111.8139 358.0288,-117.9391"/>
</g>
<!-- volts1 -->
<g id="node16" class="node">
<title>volts1</title>
<ellipse fill="none" stroke="#000000" cx="399.4971" cy="-172.8701" rx="65.1077" ry="26.7407"/>
<text text-anchor="middle" x="399.4971" y="-176.6701" font-family="Times,serif" font-size="14.00" fill="#000000">V&#45;waveforms</text>
<text text-anchor="middle" x="399.4971" y="-161.6701" font-family="Times,serif" font-size="14.00" fill="#000000">(plane1)</text>
</g>
<!-- volts1&#45;&gt;wirechan -->
<g id="edge41" class="edge">
<title>volts1&#45;&gt;wirechan</title>
<path fill="none" stroke="#000000" d="M399.4971,-145.6085C399.4971,-137.4319 399.4971,-128.433 399.4971,-120.1402"/>
<polygon fill="#000000" stroke="#000000" points="402.9972,-120.1286 399.4971,-110.1287 395.9972,-120.1287 402.9972,-120.1286"/>
</g>
<!-- volts2 -->
<g id="node17" class="node">
<title>volts2</title>
<ellipse fill="none" stroke="#000000" cx="547.4971" cy="-172.8701" rx="65.1077" ry="26.7407"/>
<text text-anchor="middle" x="547.4971" y="-176.6701" font-family="Times,serif" font-size="14.00" fill="#000000">V&#45;waveforms</text>
<text text-anchor="middle" x="547.4971" y="-161.6701" font-family="Times,serif" font-size="14.00" fill="#000000">(plane2)</text>
</g>
<!-- volts2&#45;&gt;wirechan -->
<g id="edge42" class="edge">
<title>volts2&#45;&gt;wirechan</title>
<path fill="none" stroke="#000000" d="M508.2244,-151.1453C488.0832,-140.0037 463.503,-126.4065 442.8123,-114.9609"/>
<polygon fill="#000000" stroke="#000000" points="444.3538,-111.8139 433.9092,-110.0359 440.9654,-117.9391 444.3538,-111.8139"/>
</g>
<!-- x&#45;&gt;drift -->
<g id="edge6" class="edge">
<title>x&#45;&gt;drift</title>
<path fill="none" stroke="#000000" d="M202.7682,-615.3116C203.7307,-607.6112 204.8753,-598.4546 205.945,-589.8969"/>
<polygon fill="#000000" stroke="#000000" points="209.428,-590.2504 207.1955,-579.8935 202.4821,-589.3821 209.428,-590.2504"/>
</g>
<!-- y&#45;&gt;trans0 -->
<g id="edge13" class="edge">
<title>y&#45;&gt;trans0</title>
<path fill="none" stroke="#000000" d="M468.6398,-620.9388C452.9997,-611.0608 430.7514,-597.0092 411.8098,-585.0461"/>
<polygon fill="#000000" stroke="#000000" points="413.4225,-581.9251 403.0986,-579.5443 409.6845,-587.8435 413.4225,-581.9251"/>
</g>
<!-- y&#45;&gt;trans1 -->
<g id="edge16" class="edge">
<title>y&#45;&gt;trans1</title>
<path fill="none" stroke="#000000" d="M488.4971,-615.3116C488.4971,-607.6112 488.4971,-598.4546 488.4971,-589.8969"/>
<polygon fill="#000000" stroke="#000000" points="491.9972,-589.8935 488.4971,-579.8935 484.9972,-589.8935 491.9972,-589.8935"/>
</g>
<!-- y&#45;&gt;trans2 -->
<g id="edge19" class="edge">
<title>y&#45;&gt;trans2</title>
<path fill="none" stroke="#000000" d="M508.3544,-620.9388C523.9945,-611.0608 546.2429,-597.0092 565.1844,-585.0461"/>
<polygon fill="#000000" stroke="#000000" points="567.3097,-587.8435 573.8956,-579.5443 563.5717,-581.9251 567.3097,-587.8435"/>
</g>
<!-- z&#45;&gt;trans0 -->
<g id="edge14" class="edge">
<title>z&#45;&gt;trans0</title>
<path fill="none" stroke="#000000" d="M406.5437,-616.4172C401.6539,-608.0347 395.647,-597.7371 390.1605,-588.3318"/>
<polygon fill="#000000" stroke="#000000" points="393.1753,-586.5536 385.1133,-579.6794 387.1288,-590.0808 393.1753,-586.5536"/>
</g>
<!-- z&#45;&gt;trans1 -->
<g id="edge17" class="edge">
<title>z&#45;&gt;trans1</title>
<path fill="none" stroke="#000000" d="M431.7665,-618.2109C440.8679,-609.1095 452.651,-597.3264 463.1183,-586.8591"/>
<polygon fill="#000000" stroke="#000000" points="465.8542,-589.0729 470.4504,-579.5269 460.9044,-584.1231 465.8542,-589.0729"/>
</g>
<!-- z&#45;&gt;trans2 -->
<g id="edge20" class="edge">
<title>z&#45;&gt;trans2</title>
<path fill="none" stroke="#000000" d="M438.0044,-622.2093C442.7303,-619.8785 447.7437,-617.5158 452.4971,-615.4802 482.426,-602.6638 516.5209,-590.2243 544.6343,-580.5212"/>
<polygon fill="#000000" stroke="#000000" points="545.9854,-583.7581 554.3122,-577.2071 543.7176,-577.1356 545.9854,-583.7581"/>
</g>
<!-- t&#45;&gt;drift -->
<g id="edge7" class="edge">
<title>t&#45;&gt;drift</title>
<path fill="none" stroke="#000000" d="M258.8271,-617.8573C250.9831,-608.8928 240.9397,-597.4146 231.9649,-587.1576"/>
<polygon fill="#000000" stroke="#000000" points="234.5833,-584.835 225.3642,-579.614 229.3152,-589.4446 234.5833,-584.835"/>
</g>
<!-- q&#45;&gt;drift -->
<g id="edge8" class="edge">
<title>q&#45;&gt;drift</title>
<path fill="none" stroke="#000000" d="M323.4034,-622.2302C304.3996,-612.0949 275.8842,-596.8867 252.1392,-584.2227"/>
<polygon fill="#000000" stroke="#000000" points="253.7727,-581.1272 243.302,-579.5095 250.4785,-587.3037 253.7727,-581.1272"/>
</g>
<!-- Tdrift&#45;&gt;tbinning -->
<g id="edge22" class="edge">
<title>Tdrift&#45;&gt;tbinning</title>
<path fill="none" stroke="#000000" d="M201.2517,-463.0626C196.2912,-452.5059 189.8724,-438.8457 184.2671,-426.9167"/>
<polygon fill="#000000" stroke="#000000" points="187.4101,-425.3756 179.9896,-417.8134 181.0747,-428.3526 187.4101,-425.3756"/>
</g>
<!-- Qdrift&#45;&gt;duct0 -->
<g id="edge32" class="edge">
<title>Qdrift&#45;&gt;duct0</title>
<path fill="none" stroke="#000000" d="M29.2534,-381.4941C26.7992,-361.4323 26.327,-329.4376 43.4971,-309.7401 60.697,-290.0086 121.4095,-275.3968 172.834,-266.2131"/>
<polygon fill="#000000" stroke="#000000" points="173.727,-269.6104 182.9795,-264.4488 172.5276,-262.7139 173.727,-269.6104"/>
</g>
<!-- dP&#45;&gt;pbinning0 -->
<g id="edge28" class="edge">
<title>dP&#45;&gt;pbinning0</title>
<path fill="none" stroke="#000000" d="M301.7661,-466.1522C314.7393,-454.6232 333.2106,-438.2081 348.5429,-424.5825"/>
<polygon fill="#000000" stroke="#000000" points="351.079,-427.0112 356.2289,-417.7521 346.429,-421.7787 351.079,-427.0112"/>
</g>
<!-- dT&#45;&gt;tbinning -->
<g id="edge23" class="edge">
<title>dT&#45;&gt;tbinning</title>
<path fill="none" stroke="#000000" d="M141.7426,-463.0626C146.703,-452.5059 153.1218,-438.8457 158.7271,-426.9167"/>
<polygon fill="#000000" stroke="#000000" points="161.9195,-428.3526 163.0047,-417.8134 155.5841,-425.3756 161.9195,-428.3526"/>
</g>
<!-- nTbins&#45;&gt;duct0 -->
<g id="edge33" class="edge">
<title>nTbins&#45;&gt;duct0</title>
<path fill="none" stroke="#000000" d="M114.2116,-315.8489C137.2075,-305.6129 171.0617,-290.5437 199.3969,-277.931"/>
<polygon fill="#000000" stroke="#000000" points="201.0585,-281.0226 208.771,-273.7584 198.2119,-274.6275 201.0585,-281.0226"/>
</g>
<!-- Tmin&#45;&gt;duct0 -->
<g id="edge34" class="edge">
<title>Tmin&#45;&gt;duct0</title>
<path fill="none" stroke="#000000" d="M188.0732,-312.6145C198.2098,-303.3648 211.445,-291.2876 223.2012,-280.5601"/>
<polygon fill="#000000" stroke="#000000" points="225.638,-283.0747 230.6657,-273.7488 220.9196,-277.9039 225.638,-283.0747"/>
</g>
<!-- Tmax&#45;&gt;duct0 -->
<g id="edge35" class="edge">
<title>Tmax&#45;&gt;duct0</title>
<path fill="none" stroke="#000000" d="M251.4971,-309.6952C251.4971,-301.9508 251.4971,-292.7023 251.4971,-284.0212"/>
<polygon fill="#000000" stroke="#000000" points="254.9972,-283.8529 251.4971,-273.8529 247.9972,-283.853 254.9972,-283.8529"/>
</g>
<!-- nPbins&#45;&gt;duct0 -->
<g id="edge36" class="edge">
<title>nPbins&#45;&gt;duct0</title>
<path fill="none" stroke="#000000" d="M317.6829,-312.2587C307.0954,-303.0577 293.3975,-291.1535 281.2122,-280.564"/>
<polygon fill="#000000" stroke="#000000" points="283.315,-277.7544 273.4711,-273.8366 278.7233,-283.038 283.315,-277.7544"/>
</g>
<!-- Pmin&#45;&gt;duct0 -->
<g id="edge37" class="edge">
<title>Pmin&#45;&gt;duct0</title>
<path fill="none" stroke="#000000" d="M393.6128,-316.6079C388.6278,-314.315 383.3985,-311.9321 378.4971,-309.7401 354.6989,-299.0969 328.2604,-287.5958 305.6945,-277.8758"/>
<polygon fill="#000000" stroke="#000000" points="306.8487,-274.5623 296.2794,-273.8269 304.0832,-280.9929 306.8487,-274.5623"/>
</g>
<!-- Pmax&#45;&gt;duct0 -->
<g id="edge38" class="edge">
<title>Pmax&#45;&gt;duct0</title>
<path fill="none" stroke="#000000" d="M472.2135,-316.0644C467.0851,-313.8109 461.6616,-311.5815 456.4971,-309.7401 415.5549,-295.1427 368.8185,-282.3202 330.3202,-272.7363"/>
<polygon fill="#000000" stroke="#000000" points="330.7536,-269.2385 320.2067,-270.2456 329.0796,-276.0354 330.7536,-269.2385"/>
</g>
</g>
</svg>
